HIERARCHY
ROOT joint_0
{
	OFFSET 0.000000 0.000000 0.000000
	CHANNELS 6 Xposition Yposition Zposition Zrotation Yrotation Xrotation 
	JOINT joint_1
	{
		OFFSET 6.004005 -1.946999 100.587036
		CHANNELS 3 Zrotation Yrotation Xrotation
		JOINT joint_2
		{
			OFFSET -4.601006 -0.824997 91.925903
			CHANNELS 3 Zrotation Yrotation Xrotation
			JOINT joint_3
			{
				OFFSET -5.420998 -1.130005 91.774048
				CHANNELS 3 Zrotation Yrotation Xrotation
				JOINT joint_4
				{
					OFFSET 4.308998 -3.777992 123.473999
					CHANNELS 3 Zrotation Yrotation Xrotation
					JOINT joint_5
					{
						OFFSET 25.565002 -6.305008 79.437988
						CHANNELS 3 Zrotation Yrotation Xrotation
						End Site
						{
							OFFSET 0.000000 0.000000 0.000000
						}
					}
				}
				JOINT joint_6
				{
					OFFSET -1.750000 -28.655998 68.557983
					CHANNELS 3 Zrotation Yrotation Xrotation
					JOINT joint_7
					{
						OFFSET -17.692001 -116.544006 -17.244019
						CHANNELS 3 Zrotation Yrotation Xrotation
						JOINT joint_8
						{
							OFFSET 27.063004 -23.640991 -266.895020
							CHANNELS 3 Zrotation Yrotation Xrotation
							JOINT joint_9
							{
								OFFSET 40.722000 -15.761017 -232.488953
								CHANNELS 3 Zrotation Yrotation Xrotation
								End Site
								{
									OFFSET 0.000000 0.000000 0.000000
								}
							}
						}
					}
				}
				JOINT joint_10
				{
					OFFSET 6.593002 24.457001 69.892944
					CHANNELS 3 Zrotation Yrotation Xrotation
					JOINT joint_11
					{
						OFFSET 24.311996 114.920002 -19.872925
						CHANNELS 3 Zrotation Yrotation Xrotation
						JOINT joint_12
						{
							OFFSET 21.081001 15.319000 -268.037964
							CHANNELS 3 Zrotation Yrotation Xrotation
							JOINT joint_13
							{
								OFFSET 27.794006 -8.947001 -234.744080
								CHANNELS 3 Zrotation Yrotation Xrotation
								End Site
								{
									OFFSET 0.000000 0.000000 0.000000
								}
							}
						}
					}
				}
			}
		}
	}
	JOINT joint_14
	{
		OFFSET -6.627998 -80.520004 -98.790039
		CHANNELS 3 Zrotation Yrotation Xrotation
		JOINT joint_15
		{
			OFFSET -43.638000 -13.751999 -502.538971
			CHANNELS 3 Zrotation Yrotation Xrotation
			JOINT joint_16
			{
				OFFSET -39.532999 -9.912994 -398.071007
				CHANNELS 3 Zrotation Yrotation Xrotation
				JOINT joint_17
				{
					OFFSET 174.940004 -34.660995 -75.688002
					CHANNELS 3 Zrotation Yrotation Xrotation
					End Site
					{
						OFFSET 0.000000 0.000000 0.000000
					}
				}
			}
		}
	}
	JOINT joint_18
	{
		OFFSET 12.591003 79.842003 -98.765015
		CHANNELS 3 Zrotation Yrotation Xrotation
		JOINT joint_19
		{
			OFFSET -39.080002 -1.297001 -503.101013
			CHANNELS 3 Zrotation Yrotation Xrotation
			JOINT joint_20
			{
				OFFSET -51.570000 -0.514000 -396.815987
				CHANNELS 3 Zrotation Yrotation Xrotation
				JOINT joint_21
				{
					OFFSET 178.987999 -11.521999 -73.244003
					CHANNELS 3 Zrotation Yrotation Xrotation
					End Site
					{
						OFFSET 0.000000 0.000000 0.000000
					}
				}
			}
		}
	}
}
MOTION
Frames: 18
Frame Time: 0.016667
-1303.796143 894.356812 1097.100952 -15.766162 -0.866154 0.807067 0.888295 3.011027 -0.506572 0.916798 -0.540058 0.157164 0.920362 0.607696 -0.082390 0.555962 -1.557187 -2.099880 0.000000 0.000000 0.000000 -0.867538 0.701777 1.149035 -0.002545 0.864155 -0.656974 -0.500501 5.699300 -0.947957 0.000000 0.000000 0.000000 2.587703 -0.467218 0.469439 0.104549 -0.375422 -1.989189 0.924096 2.077902 6.863567 0.000000 0.000000 0.000000 11.498278 0.633576 -3.013662 11.179758 -1.597574 0.928859 10.736224 1.069134 4.861198 0.000000 0.000000 0.000000 1.507051 -2.210071 4.434342 1.789891 -0.683947 -0.855723 1.586530 1.028461 0.710152 0.000000 0.000000 0.000000 
-1303.928467 894.373962 1097.098022 -15.781461 -0.870198 0.801011 0.881036 3.024130 -0.503066 0.909370 -0.542432 0.157247 0.913049 0.612228 -0.082219 0.553569 -1.564144 -2.094378 0.000000 0.000000 0.000000 -0.872639 0.686120 1.165996 -0.006112 0.851767 -0.663731 -0.501593 5.656307 -0.964188 0.000000 0.000000 0.000000 2.588877 -0.482571 0.458067 0.099515 -0.408889 -1.920107 0.913750 2.131888 6.798354 0.000000 0.000000 0.000000 11.501707 0.604975 -3.020123 11.177016 -1.555910 0.966511 10.739326 1.052381 4.859020 0.000000 0.000000 0.000000 1.511301 -2.224700 4.439652 1.793131 -0.655869 -0.849963 1.590378 1.023294 0.711373 0.000000 0.000000 0.000000 
-1304.052246 894.387817 1097.088989 -15.793933 -0.882873 0.790638 0.875033 3.050155 -0.498249 0.903103 -0.548769 0.156447 0.907144 0.619304 -0.080950 0.549757 -1.575264 -2.085490 0.000000 0.000000 0.000000 -0.872001 0.668919 1.185827 -0.007972 0.837986 -0.664191 -0.502280 5.626108 -0.975124 0.000000 0.000000 0.000000 2.587314 -0.496116 0.446937 0.095880 -0.434497 -1.876048 0.907527 2.174763 6.758589 0.000000 0.000000 0.000000 11.501974 0.578864 -3.021157 11.170846 -1.499862 1.010142 10.740520 1.025897 4.854070 0.000000 0.000000 0.000000 1.514993 -2.236372 4.447340 1.795516 -0.613964 -0.838458 1.594178 1.013304 0.712265 0.000000 0.000000 0.000000 
-1304.163940 894.393005 1097.074951 -15.802552 -0.900839 0.777114 0.869771 3.080282 -0.492893 0.897563 -0.554104 0.154160 0.902117 0.627680 -0.078920 0.544770 -1.590589 -2.073959 0.000000 0.000000 0.000000 -0.867211 0.651193 1.208017 -0.008409 0.823358 -0.657126 -0.502637 5.603180 -0.982456 0.000000 0.000000 0.000000 2.581928 -0.508135 0.435903 0.092903 -0.454384 -1.848063 0.903912 2.214416 6.735258 0.000000 0.000000 0.000000 11.499383 0.553840 -3.018250 11.161551 -1.433032 1.058557 10.739781 0.992590 4.846911 0.000000 0.000000 0.000000 1.517502 -2.246997 4.456990 1.796483 -0.561565 -0.822853 1.597159 0.999706 0.712594 0.000000 0.000000 0.000000 
-1304.285034 894.401855 1097.057983 -15.813608 -0.927861 0.760267 0.867554 3.125739 -0.484822 0.894934 -0.563539 0.151888 0.900196 0.638381 -0.075667 0.539536 -1.606703 -2.061869 0.000000 0.000000 0.000000 -0.860903 0.632403 1.228693 -0.007929 0.806633 -0.644056 -0.503358 5.585258 -0.990937 0.000000 0.000000 0.000000 2.578225 -0.520304 0.422456 0.090094 -0.471157 -1.839214 0.902250 2.246664 6.724681 0.000000 0.000000 0.000000 11.495333 0.529366 -3.011416 11.150290 -1.349982 1.112288 10.738507 0.949629 4.837598 0.000000 0.000000 0.000000 1.519892 -2.257836 4.465979 1.796301 -0.487294 -0.796125 1.600533 0.973775 0.712293 0.000000 0.000000 0.000000 
-1304.428467 894.427368 1097.037964 -15.831376 -0.968851 0.737909 0.870575 3.191850 -0.465568 0.897035 -0.572193 0.146575 0.903278 0.650996 -0.071677 0.533739 -1.626393 -2.048924 0.000000 0.000000 0.000000 -0.855012 0.610875 1.246224 -0.006706 0.785716 -0.625665 -0.504795 5.571282 -1.003037 0.000000 0.000000 0.000000 2.579040 -0.534939 0.403836 0.087224 -0.487276 -1.854160 0.902565 2.267330 6.727260 0.000000 0.000000 0.000000 11.489446 0.506947 -2.999302 11.136506 -1.246654 1.174211 10.736710 0.893891 4.825507 0.000000 0.000000 0.000000 1.522959 -2.266821 4.475127 1.795531 -0.384091 -0.754825 1.605271 0.929402 0.711365 0.000000 0.000000 0.000000 
-1304.590088 894.462097 1097.015015 -15.854107 -1.022888 0.710654 0.877569 3.279860 -0.439531 0.902749 -0.584885 0.139736 0.910359 0.666371 -0.065155 0.527589 -1.649818 -2.035782 0.000000 0.000000 0.000000 -0.846541 0.587020 1.261602 -0.004674 0.761575 -0.601753 -0.506813 5.561879 -1.017727 0.000000 0.000000 0.000000 2.583760 -0.550610 0.378651 0.084442 -0.502028 -1.890305 0.904996 2.279101 6.743871 0.000000 0.000000 0.000000 11.481493 0.487036 -2.982141 11.120069 -1.125045 1.243829 10.734125 0.827314 4.810898 0.000000 0.000000 0.000000 1.526545 -2.272876 4.485209 1.794357 -0.256596 -0.701942 1.611061 0.871020 0.709968 0.000000 0.000000 0.000000 
-1304.753906 894.503601 1096.994995 -15.876728 -1.076816 0.684009 0.888776 3.367402 -0.414714 0.912744 -0.598310 0.133601 0.921591 0.682261 -0.060401 0.521052 -1.666312 -2.019907 0.000000 0.000000 0.000000 -0.846264 0.565538 1.274425 -0.002094 0.737753 -0.575310 -0.508558 5.554924 -1.030334 0.000000 0.000000 0.000000 2.583526 -0.565660 0.357692 0.081497 -0.512189 -1.936982 0.907209 2.281667 6.759519 0.000000 0.000000 0.000000 11.474734 0.460699 -2.964733 11.104323 -0.989064 1.312252 10.732715 0.754440 4.795574 0.000000 0.000000 0.000000 1.529019 -2.292363 4.486623 1.789575 -0.099879 -0.630245 1.615705 0.796114 0.707052 0.000000 0.000000 0.000000 
-1304.914429 894.553589 1096.984985 -15.898194 -1.121964 0.661893 0.905168 3.440915 -0.397562 0.928310 -0.609265 0.129665 0.938023 0.694708 -0.057750 0.514981 -1.668642 -2.002253 0.000000 0.000000 0.000000 -0.860375 0.549751 1.283320 0.000827 0.716721 -0.547948 -0.509785 5.549802 -1.039568 0.000000 0.000000 0.000000 2.574235 -0.578097 0.344784 0.078233 -0.515814 -1.986848 0.907425 2.272423 6.762919 0.000000 0.000000 0.000000 11.472189 0.419551 -2.951398 11.091861 -0.837635 1.375478 10.734450 0.677934 4.780944 0.000000 0.000000 0.000000 1.530087 -2.337947 4.471342 1.779417 0.093253 -0.532004 1.618378 0.700917 0.702048 0.000000 0.000000 0.000000 
-1305.077515 894.612610 1096.982056 -15.918998 -1.163507 0.641795 0.927112 3.508553 -0.385266 0.949781 -0.619052 0.128937 0.959973 0.704878 -0.057248 0.509131 -1.659336 -1.982645 0.000000 0.000000 0.000000 -0.887447 0.538145 1.288858 0.004230 0.697112 -0.518812 -0.510609 5.547235 -1.045932 0.000000 0.000000 0.000000 2.555978 -0.589334 0.337216 0.074661 -0.513858 -2.044894 0.906633 2.253000 6.760497 0.000000 0.000000 0.000000 11.471905 0.367427 -2.939268 11.080897 -0.669254 1.435862 10.738020 0.596011 4.766064 0.000000 0.000000 0.000000 1.530119 -2.403542 4.443224 1.764793 0.321150 -0.409454 1.619453 0.587752 0.695250 0.000000 0.000000 0.000000 
-1305.229248 894.664307 1096.979980 -15.936631 -1.200192 0.623601 0.948351 3.567689 -0.375618 0.970651 -0.628738 0.127109 0.981380 0.713807 -0.056521 0.504663 -1.641082 -1.965156 0.000000 0.000000 0.000000 -0.915916 0.530419 1.290224 0.007692 0.680427 -0.488992 -0.511270 5.544956 -1.051219 0.000000 0.000000 0.000000 2.538337 -0.596078 0.333909 0.071306 -0.506385 -2.103779 0.905208 2.227972 6.753846 0.000000 0.000000 0.000000 11.473547 0.312145 -2.926877 11.072371 -0.501306 1.489174 10.743145 0.516581 4.752375 0.000000 0.000000 0.000000 1.529066 -2.481811 4.410229 1.747662 0.566105 -0.279318 1.618531 0.465905 0.687086 0.000000 0.000000 0.000000 
-1305.360718 894.691650 1096.975952 -15.946179 -1.228528 0.607541 0.963650 3.610732 -0.371695 0.986074 -0.635076 0.127587 0.996966 0.718856 -0.057615 0.502543 -1.610466 -1.951893 0.000000 0.000000 0.000000 -0.936845 0.528586 1.285753 0.011080 0.669477 -0.456554 -0.511813 5.539819 -1.056288 0.000000 0.000000 0.000000 2.529505 -0.595112 0.336530 0.068320 -0.492228 -2.158671 0.902955 2.200353 6.741574 0.000000 0.000000 0.000000 11.475946 0.256167 -2.912369 11.066131 -0.344186 1.530205 10.748561 0.446227 4.740641 0.000000 0.000000 0.000000 1.525352 -2.574104 4.376148 1.727200 0.822585 -0.149324 1.613768 0.339552 0.677072 0.000000 0.000000 0.000000 
-1305.477173 894.702332 1096.974976 -15.948895 -1.249549 0.593132 0.975757 3.640597 -0.371889 0.998628 -0.640779 0.128747 1.009572 0.722781 -0.059315 0.502449 -1.568353 -1.942059 0.000000 0.000000 0.000000 -0.954930 0.532026 1.276488 0.014374 0.663203 -0.422130 -0.512246 5.531955 -1.061249 0.000000 0.000000 0.000000 2.524216 -0.588012 0.344028 0.065638 -0.471827 -2.211780 0.899810 2.167482 6.723283 0.000000 0.000000 0.000000 11.479284 0.196754 -2.896091 11.061806 -0.190993 1.561606 10.754481 0.381855 4.730342 0.000000 0.000000 0.000000 1.519330 -2.682548 4.338589 1.702988 1.097184 -0.013432 1.605398 0.206140 0.665140 0.000000 0.000000 0.000000 
-1305.578735 894.714050 1096.967041 -15.954868 -1.271302 0.578485 0.986524 3.669623 -0.368576 1.009679 -0.644616 0.127732 1.020814 0.725520 -0.060199 0.504359 -1.528079 -1.938659 0.000000 0.000000 0.000000 -0.967447 0.534861 1.267039 0.016747 0.658728 -0.397644 -0.512379 5.525754 -1.063840 0.000000 0.000000 0.000000 2.524054 -0.578774 0.349584 0.063252 -0.450699 -2.264144 0.897648 2.140266 6.711187 0.000000 0.000000 0.000000 11.484919 0.143118 -2.879105 11.060642 -0.047409 1.588913 10.762659 0.321229 4.721771 0.000000 0.000000 0.000000 1.514592 -2.783905 4.303819 1.680832 1.361048 0.116684 1.597730 0.077103 0.653770 0.000000 0.000000 0.000000 
-1305.663452 894.741821 1096.946045 -15.973154 -1.302476 0.560642 0.999270 3.711559 -0.356833 1.022377 -0.650251 0.127133 1.033824 0.730811 -0.060066 0.508905 -1.503002 -1.946665 0.000000 0.000000 0.000000 -0.976611 0.533111 1.260064 0.017199 0.653817 -0.393409 -0.512160 5.521305 -1.063720 0.000000 0.000000 0.000000 2.524432 -0.570869 0.346439 0.061145 -0.432255 -2.319182 0.898235 2.127967 6.716706 0.000000 0.000000 0.000000 11.493804 0.103629 -2.859361 11.063884 0.084928 1.615208 10.774661 0.262015 4.715155 0.000000 0.000000 0.000000 1.513884 -2.860116 4.276674 1.664926 1.598243 0.235685 1.594383 -0.041833 0.644799 0.000000 0.000000 0.000000 
-1305.729980 894.782227 1096.915039 -15.998999 -1.339180 0.541150 1.012208 3.759088 -0.337933 1.034932 -0.654829 0.124363 1.046898 0.736794 -0.058799 0.515792 -1.486497 -1.963706 0.000000 0.000000 0.000000 -0.980056 0.528793 1.254049 0.016167 0.649873 -0.404871 -0.511547 5.518478 -1.060633 0.000000 0.000000 0.000000 2.528320 -0.562410 0.337737 0.059320 -0.414487 -2.376677 0.900845 2.125810 6.735255 0.000000 0.000000 0.000000 11.505425 0.074313 -2.837888 11.070901 0.207828 1.638715 10.789708 0.204532 4.710222 0.000000 0.000000 0.000000 1.515383 -2.921479 4.253108 1.652397 1.820665 0.349239 1.593297 -0.156028 0.637050 0.000000 0.000000 0.000000 
-1305.794678 894.803345 1096.880981 -16.024433 -1.373690 0.521998 1.024032 3.806480 -0.319852 1.046400 -0.660452 0.122434 1.058882 0.744013 -0.057257 0.523841 -1.478299 -1.986159 0.000000 0.000000 0.000000 -0.983904 0.522214 1.251408 0.014500 0.645270 -0.423389 -0.511104 5.518077 -1.057967 0.000000 0.000000 0.000000 2.529968 -0.554870 0.328553 0.057683 -0.399915 -2.421941 0.903069 2.129430 6.751164 0.000000 0.000000 0.000000 11.518624 0.050335 -2.817583 11.080046 0.314342 1.661835 10.806097 0.153976 4.707226 0.000000 0.000000 0.000000 1.517230 -2.969120 4.240933 1.643360 2.008864 0.438684 1.592689 -0.254439 0.630498 0.000000 0.000000 0.000000 
-1305.869629 894.787964 1096.848022 -16.044278 -1.402752 0.504745 1.033475 3.852988 -0.304356 1.055421 -0.667657 0.118925 1.068593 0.751892 -0.055049 0.532824 -1.479502 -2.013612 0.000000 0.000000 0.000000 -0.989556 0.512360 1.255743 0.012522 0.638982 -0.446746 -0.511058 5.522094 -1.056684 0.000000 0.000000 0.000000 2.526791 -0.548661 0.320853 0.056331 -0.390408 -2.443896 0.903398 2.135546 6.754476 0.000000 0.000000 0.000000 11.532710 0.030873 -2.801136 11.090261 0.398598 1.687491 10.822859 0.113484 4.706337 0.000000 0.000000 0.000000 1.517694 -3.001333 4.245467 1.637547 2.148930 0.490848 1.591124 -0.329596 0.625037 0.000000 0.000000 0.000000 
